<svg width="58" height="58" viewBox="0 0 58 58" fill="none" xmlns="http://www.w3.org/2000/svg">
<circle cx="29" cy="29" r="28" stroke="#464D62" stroke-width="2"/>
<path d="M29.0001 36.9932C29.1987 36.9927 29.3949 36.9501 29.5759 36.8683C29.7569 36.7864 29.9185 36.6672 30.0501 36.5184L35.7895 29.9973C35.9274 29.8289 35.9945 29.6135 35.9767 29.3965C35.9589 29.1795 35.8575 28.978 35.694 28.8343C35.5305 28.6905 35.3176 28.6159 35.1001 28.6261C34.8826 28.6364 34.6776 28.7306 34.5283 28.889L30.095 33.9272C30.0754 33.9493 30.0495 33.9649 30.0208 33.972C29.9922 33.9791 29.962 33.9773 29.9344 33.9669C29.9067 33.9564 29.8829 33.9379 29.8661 33.9136C29.8492 33.8893 29.8402 33.8605 29.8401 33.831L29.8401 23.8478C29.8401 23.625 29.7516 23.4114 29.594 23.2538C29.4365 23.0963 29.2228 23.0078 29.0001 23.0078C28.7773 23.0078 28.5636 23.0963 28.4061 23.2538C28.2486 23.4114 28.1601 23.625 28.1601 23.8478L28.1601 33.8292C28.1598 33.8588 28.1506 33.8875 28.1337 33.9117C28.1167 33.9359 28.0929 33.9544 28.0653 33.9648C28.0376 33.9752 28.0075 33.9771 27.9788 33.97C27.9501 33.963 27.9243 33.9475 27.9046 33.9255L23.4712 28.8872C23.4001 28.7991 23.3118 28.7263 23.2118 28.6732C23.1117 28.62 23.002 28.5877 22.8891 28.5781C22.7763 28.5685 22.6626 28.5817 22.5551 28.6172C22.4475 28.6526 22.3482 28.7094 22.2631 28.7842C22.178 28.859 22.109 28.9502 22.0601 29.0524C22.0112 29.1545 21.9834 29.2655 21.9785 29.3787C21.9736 29.4918 21.9917 29.6048 22.0316 29.7108C22.0715 29.8169 22.1324 29.9137 22.2106 29.9956L27.9501 36.5178C28.0815 36.6668 28.2431 36.7862 28.4241 36.8681C28.6051 36.9501 28.8014 36.9927 29.0001 36.9932Z" fill="white"/>
</svg>
