<svg width="1440" height="875" viewBox="0 0 1440 875" fill="none" xmlns="http://www.w3.org/2000/svg">
  <path opacity="0.07" d="M3.82038e-05 1L3.82475e-05 1.90545e-06L1440 6.48499e-05L1440 1.00006L3.82038e-05 1ZM3.65427e-05 39L3.65864e-05 38L1440 38.0001L1440 39.0001L3.65427e-05 39ZM3.48817e-05 77L3.49254e-05 76L1440 76.0001L1440 77.0001L3.48817e-05 77ZM3.32207e-05 115L3.32644e-05 114L1440 114L1440 115L3.32207e-05 115ZM3.15596e-05 153L3.16033e-05 152L1440 152L1440 153L3.15596e-05 153ZM2.98986e-05 191L2.99423e-05 190L1440 190L1440 191L2.98986e-05 191ZM2.82376e-05 229L2.82813e-05 228L1440 228L1440 229L2.82376e-05 229ZM2.65765e-05 267L2.66202e-05 266L1440 266L1440 267L2.65765e-05 267ZM2.49155e-05 305L2.49592e-05 304L1440 304L1440 305L2.49155e-05 305ZM2.32545e-05 343L2.32982e-05 342L1440 342L1440 343L2.32545e-05 343ZM2.15934e-05 381L2.16371e-05 380L1440 380L1440 381L2.15934e-05 381ZM1.99324e-05 419L1.99761e-05 418L1440 418L1440 419L1.99324e-05 419ZM1.82714e-05 457L1.83151e-05 456L1440 456L1440 457L1.82714e-05 457ZM1.66103e-05 495L1.6654e-05 494L1440 494L1440 495L1.66103e-05 495ZM1.49493e-05 533L1.4993e-05 532L1440 532L1440 533L1.49493e-05 533ZM1.32883e-05 571L1.3332e-05 570L1440 570L1440 571L1.32883e-05 571ZM1.16272e-05 609L1.16709e-05 608L1440 608L1440 609L1.16272e-05 609ZM9.9662e-06 647L1.00099e-05 646L1440 646L1440 647L9.9662e-06 647ZM8.30517e-06 685L8.34888e-06 684L1440 684L1440 685L8.30517e-06 685ZM6.64413e-06 723L6.68785e-06 722L1440 722L1440 723L6.64413e-06 723ZM4.9831e-06 761L5.02681e-06 760L1440 760L1440 761L4.9831e-06 761ZM3.32207e-06 799L3.36578e-06 798L1440 798L1440 799L3.32207e-06 799ZM1.66104e-06 837L1.70475e-06 836L1440 836L1440 837L1.66104e-06 837ZM1440 875L0 875L4.37149e-08 874L1440 874L1440 875Z" fill="url(#paint0_linear_1_135)" />
  <defs>
    <linearGradient id="paint0_linear_1_135" x1="743.5" y1="912" x2="743.5" y2="-50.9999" gradientUnits="userSpaceOnUse">
      <stop stop-color="white" />
      <stop offset="1" stop-color="white" stop-opacity="0" />
    </linearGradient>
  </defs>
</svg>